<svg id="Capa_1" enable-background="new 0 0 512 512" height="512" viewBox="0 0 512 512" width="512" xmlns="http://www.w3.org/2000/svg"><path d="m504.5 497h-362v-482h362z" fill="#0042a2"/><path d="m504.5 497h-181v-482h181z" fill="#002659"/><path d="m459.5 452h-272v-392h272z" fill="#f5f0eb"/><path d="m459.5 452h-136v-392h136z" fill="#ebe1dc"/><path d="m353.5 226c-16.569 0-30 13.431-30 30 0-16.569-13.431-30-30-30s-30 13.431-30 30c0 36.652 60 75 60 75s60-38.348 60-75c0-16.569-13.431-30-30-30z" fill="#ff3980"/><path d="m353.5 226c-16.569 0-30 13.431-30 30v75s60-38.348 60-75c0-16.569-13.431-30-30-30z" fill="#f30051"/><path d="m248.5 0h150v90h-150z" fill="#76e2f8"/><path d="m323.5 0h75v90h-75z" fill="#00cef5"/><path d="m218 512c-49.902 0-90.5-40.598-90.5-90.5v-166.5h30v166.5c0 33.36 27.14 60.5 60.5 60.5s60.5-27.14 60.5-60.5v-44.5h30v44.5c0 49.902-40.598 90.5-90.5 90.5z" fill="#ebe1dc"/><path d="m293.5 392c-24.813 0-45-20.187-45-45s20.187-45 45-45 45 20.187 45 45-20.187 45-45 45z" fill="#76e2f8"/><path d="m293.5 392v-90c24.813 0 45 20.187 45 45s-20.187 45-45 45z" fill="#27d8f6"/><path d="m293.5 332c-8.271 0-15 6.729-15 15s6.729 15 15 15 15-6.729 15-15-6.729-15-15-15z" fill="#ffda2d"/><path d="m293.5 332v30c8.271 0 15-6.729 15-15s-6.729-15-15-15z" fill="#ffcd00"/><path d="m142.5 270c-74.439 0-135-60.561-135-135v-45h75v30h-45v15c0 57.897 47.103 105 105 105s105-47.103 105-105v-15h-45v-30h75v45c0 74.439-60.561 135-135 135z" fill="#ff3980"/><path d="m142.5 270v-30c57.897 0 105-47.103 105-105v-15h-45v-30h75v45c0 74.439-60.561 135-135 135z" fill="#f30051"/><circle cx="82.5" cy="105" fill="#f5f0eb" r="30"/><circle cx="201.5" cy="105" fill="#ebe1dc" r="30"/></svg>