<svg id="Flat" height="512" viewBox="0 0 512 512" width="512" xmlns="http://www.w3.org/2000/svg"><path d="m368 24 72 72v392h-400v-464z" fill="#e9eef2"/><g fill="#d0d2d4"><path d="m376.41 208h-280.82a8.011 8.011 0 0 1 0-16h280.82a8.011 8.011 0 0 1 0 16z"/><path d="m376.41 248h-280.82a8.011 8.011 0 0 1 0-16h280.82a8.011 8.011 0 0 1 0 16z"/><path d="m376.41 288h-280.82a8.011 8.011 0 0 1 0-16h280.82a8.011 8.011 0 0 1 0 16z"/><path d="m376.41 328h-280.82a8.011 8.011 0 0 1 0-16h280.82a8.011 8.011 0 0 1 0 16z"/></g><path d="m80 456h320v32h-320z" fill="#95573a"/><path d="m120 424h240v32h-240z" fill="#ad6643"/><path d="m202.461 211.431h147.078v113.137h-147.078z" fill="#95573a" transform="matrix(.707 -.707 .707 .707 -108.666 273.657)"/><path d="m203.029 256.118h33.941v135.765h-33.941z" fill="#ad6643" transform="matrix(.707 -.707 .707 .707 -164.666 250.461)"/><path d="m315.029 144.118h33.941v135.765h-33.941z" fill="#ad6643" transform="matrix(.707 -.707 .707 .707 -52.666 296.853)"/><path d="m247.716 188.804h56.569v158.392h-56.569z" fill="#ad6643" transform="matrix(.707 -.707 .707 .707 -108.666 273.657)"/><path d="m371.029 300.804h33.941v158.392h-33.941z" fill="#95573a" transform="matrix(.707 -.707 .707 .707 -155.058 385.657)"/><path d="m411.716 415.029h56.569v33.941h-56.569z" fill="#ad6643" transform="matrix(.707 -.707 .707 .707 -176.597 437.657)"/><circle cx="152" cy="112" fill="#ffd33a" r="48"/><path d="m152 48a64 64 0 1 0 64 64 64.072 64.072 0 0 0 -64-64zm0 112a48 48 0 1 1 48-48 48.051 48.051 0 0 1 -48 48z" fill="#ffb632"/><path d="m168 120a15.974 15.974 0 0 1 -8 13.84v2.16a8 8 0 0 1 -16 0 8 8 0 0 1 0-16h8a15.99 15.99 0 0 1 -8-29.84v-2.16a8 8 0 0 1 16 0 8 8 0 0 1 0 16h-8a16.021 16.021 0 0 1 16 16z" fill="#ffb632"/><path d="m368 24 72 72h-72z" fill="#d0d2d4"/></svg>