<?xml version="1.0" encoding="UTF-8"?>
<svg xmlns="http://www.w3.org/2000/svg" id="artwork" width="512" height="512" viewBox="0 0 64 64"><circle cx="20" cy="30.5" r="3" style="fill:#3e3ef4"/><path d="M32,18.5H8A1.50008,1.50008,0,0,0,6.5,20V50A1.50008,1.50008,0,0,0,8,51.5H32A1.50007,1.50007,0,0,0,33.5,50V20A1.50007,1.50007,0,0,0,32,18.5Zm-3,27A1.50008,1.50008,0,0,1,27.5,44a7.5,7.5,0,0,0-15,0,1.5,1.5,0,0,1-3,0,10.50379,10.50379,0,0,1,6.04547-9.49445,6,6,0,1,1,8.90906,0A10.50379,10.50379,0,0,1,30.5,44,1.50007,1.50007,0,0,1,29,45.5Z" style="fill:#3e3ef4"/><path d="M59,6.5H11A4.50491,4.50491,0,0,0,6.5,11v1.5H5A4.50491,4.50491,0,0,0,.5,17V53A4.50491,4.50491,0,0,0,5,57.5H53A4.50491,4.50491,0,0,0,57.5,53V51.5H59A4.50491,4.50491,0,0,0,63.5,47V11A4.50491,4.50491,0,0,0,59,6.5ZM54.5,53A1.50164,1.50164,0,0,1,53,54.5H5A1.50164,1.50164,0,0,1,3.5,53V17A1.50164,1.50164,0,0,1,5,15.5H53A1.50164,1.50164,0,0,1,54.5,17Zm6-6A1.50164,1.50164,0,0,1,59,48.5H57.5V17A4.50491,4.50491,0,0,0,53,12.5H9.5V11A1.50164,1.50164,0,0,1,11,9.5H59A1.50164,1.50164,0,0,1,60.5,11Z"/><path d="M50,24.5H38a1.5,1.5,0,0,0,0,3H50a1.5,1.5,0,0,0,0-3Z"/><path d="M50,33.5H38a1.5,1.5,0,0,0,0,3H50a1.5,1.5,0,0,0,0-3Z"/><path d="M50,42.5H38a1.5,1.5,0,0,0,0,3H50a1.5,1.5,0,0,0,0-3Z"/></svg>
